<?xml version="1.0" encoding="UTF-8" standalone="no"?>
<!DOCTYPE svg PUBLIC "-//W3C//DTD SVG 1.1//EN"
 "http://www.w3.org/Graphics/SVG/1.1/DTD/svg11.dtd">
<!-- Generated by graphviz version 2.38.0 (20140413.2041)
 -->
<!-- Title: G Pages: 1 -->
<svg width="1050pt" height="423pt"
 viewBox="0.00 0.00 1050.44 423.00" xmlns="http://www.w3.org/2000/svg" xmlns:xlink="http://www.w3.org/1999/xlink">
<g id="graph0" class="graph" transform="scale(1 1) rotate(0) translate(4 419)">
<title>G</title>
<polygon fill="#ffffff" stroke="none" points="-4,4 -4,-419 1046.44,-419 1046.44,4 -4,4"/>
<g id="clust1" class="cluster"><title>cluster0</title>
<polygon fill="lightcyan" stroke="lightcyan" points="8,-184 8,-330 455.085,-330 455.085,-184 8,-184"/>
<text text-anchor="middle" x="231.543" y="-314.8" font-family="Times New Roman,serif" font-size="14.00">TAG Neuron®</text>
</g>
<g id="clust6" class="cluster"><title>cluster2</title>
<polygon fill="lightcyan" stroke="lightcyan" points="595.579,-8 595.579,-407 1034.44,-407 1034.44,-8 595.579,-8"/>
<text text-anchor="middle" x="815.011" y="-391.8" font-family="Times New Roman,serif" font-size="14.00">TAG User Interfaces</text>
</g>
<g id="clust4" class="cluster"><title>cluster1</title>
<polygon fill="lightsalmon" stroke="lightsalmon" points="475.085,-27 475.085,-346 575.579,-346 575.579,-27 475.085,-27"/>
<text text-anchor="middle" x="525.332" y="-330.8" font-family="Times New Roman,serif" font-size="14.00">Federated</text>
<text text-anchor="middle" x="525.332" y="-315.8" font-family="Times New Roman,serif" font-size="14.00">Interoperability</text>
<text text-anchor="middle" x="525.332" y="-300.8" font-family="Times New Roman,serif" font-size="14.00">Layer</text>
</g>
<!-- Word -->
<g id="node1" class="node"><title>Word</title>
<ellipse fill="white" stroke="black" cx="48.4971" cy="-210" rx="32.4942" ry="18"/>
<text text-anchor="middle" x="48.4971" y="-206.3" font-family="Times New Roman,serif" font-size="14.00" fill="#000000">Word</text>
</g>
<!-- N1 -->
<g id="node2" class="node"><title>N1</title>
<polygon fill="white" stroke="none" points="156.494,-193.5 155.494,-193.5 155.494,-192.5 156.494,-192.5 156.494,-193.5"/>
</g>
<!-- Word&#45;&gt;N1 -->
<g id="edge1" class="edge"><title>Word&#45;&gt;N1</title>
<path fill="none" stroke="black" d="M80.0113,-205.083C110.195,-200.219 152.268,-193.439 154.868,-193.02"/>
</g>
<!-- Markdown -->
<g id="node3" class="node"><title>Markdown</title>
<ellipse fill="white" stroke="black" cx="281.04" cy="-210" rx="50.0912" ry="18"/>
<text text-anchor="middle" x="281.04" y="-206.3" font-family="Times New Roman,serif" font-size="14.00" fill="#000000">Markdown</text>
</g>
<!-- N1&#45;&gt;Markdown -->
<g id="edge2" class="edge"><title>N1&#45;&gt;Markdown</title>
<path fill="none" stroke="black" d="M157.083,-193.012C159.027,-193.281 192.404,-197.892 223.89,-202.242"/>
<polygon fill="black" stroke="black" points="223.618,-205.738 234.003,-203.64 224.577,-198.804 223.618,-205.738"/>
</g>
<!-- N1_2 -->
<g id="node5" class="node"><title>N1_2</title>
<polygon fill="white" stroke="none" points="156.494,-212.5 155.494,-212.5 155.494,-211.5 156.494,-211.5 156.494,-212.5"/>
</g>
<!-- N1&#45;&gt;N1_2 -->
<g id="edge4" class="edge"><title>N1&#45;&gt;N1_2</title>
<path fill="none" stroke="black" d="M155.994,-203.624C155.994,-206.224 155.994,-208.824 155.994,-211.425"/>
<polygon fill="black" stroke="black" points="159.494,-203.594 155.994,-193.594 152.494,-203.594 159.494,-203.594"/>
</g>
<!-- N2 -->
<g id="node4" class="node"><title>N2</title>
<polygon fill="white" stroke="none" points="407.585,-193.5 406.585,-193.5 406.585,-192.5 407.585,-192.5 407.585,-193.5"/>
</g>
<!-- Markdown&#45;&gt;N2 -->
<g id="edge3" class="edge"><title>Markdown&#45;&gt;N2</title>
<path fill="none" stroke="black" d="M328.23,-203.67C362.396,-198.988 403.431,-193.364 405.962,-193.017"/>
</g>
<!-- N2_2 -->
<g id="node7" class="node"><title>N2_2</title>
<polygon fill="white" stroke="none" points="407.585,-212.5 406.585,-212.5 406.585,-211.5 407.585,-211.5 407.585,-212.5"/>
</g>
<!-- N2&#45;&gt;N2_2 -->
<g id="edge6" class="edge"><title>N2&#45;&gt;N2_2</title>
<path fill="none" stroke="black" d="M407.085,-203.624C407.085,-206.224 407.085,-208.824 407.085,-211.425"/>
<polygon fill="black" stroke="black" points="410.585,-203.594 407.085,-193.594 403.585,-203.594 410.585,-203.594"/>
</g>
<!-- XML -->
<g id="node9" class="node"><title>XML</title>
<ellipse fill="white" stroke="black" cx="524.832" cy="-193" rx="30.5947" ry="18"/>
<text text-anchor="middle" x="524.832" y="-189.3" font-family="Times New Roman,serif" font-size="14.00" fill="#000000">XML</text>
</g>
<!-- N2&#45;&gt;XML -->
<g id="edge8" class="edge"><title>N2&#45;&gt;XML</title>
<path fill="none" stroke="black" d="M408.169,-193C410.269,-193 451.382,-193 484,-193"/>
<polygon fill="black" stroke="black" points="484.231,-196.5 494.231,-193 484.231,-189.5 484.231,-196.5"/>
</g>
<!-- Note1 -->
<g id="node6" class="node"><title>Note1</title>
<polygon fill="white" stroke="black" points="194.994,-299 116.994,-299 116.994,-231 194.994,-231 194.994,-299"/>
<text text-anchor="middle" x="155.994" y="-283.8" font-family="Times New Roman,serif" font-size="14.00" fill="#000000">Removing</text>
<text text-anchor="middle" x="155.994" y="-268.8" font-family="Times New Roman,serif" font-size="14.00" fill="#000000">formatting</text>
<text text-anchor="middle" x="155.994" y="-253.8" font-family="Times New Roman,serif" font-size="14.00" fill="#000000">and</text>
<text text-anchor="middle" x="155.994" y="-238.8" font-family="Times New Roman,serif" font-size="14.00" fill="#000000">positioning</text>
</g>
<!-- N1_2&#45;&gt;Note1 -->
<g id="edge5" class="edge"><title>N1_2&#45;&gt;Note1</title>
<path fill="none" stroke="black" d="M155.994,-212.828C155.994,-218.806 155.994,-224.784 155.994,-230.762"/>
</g>
<!-- Note2 -->
<g id="node8" class="node"><title>Note2</title>
<polygon fill="white" stroke="black" points="447.085,-299 367.085,-299 367.085,-231 447.085,-231 447.085,-299"/>
<text text-anchor="middle" x="407.085" y="-283.8" font-family="Times New Roman,serif" font-size="14.00" fill="#000000">Simplifying</text>
<text text-anchor="middle" x="407.085" y="-268.8" font-family="Times New Roman,serif" font-size="14.00" fill="#000000">content</text>
<text text-anchor="middle" x="407.085" y="-253.8" font-family="Times New Roman,serif" font-size="14.00" fill="#000000">to make it</text>
<text text-anchor="middle" x="407.085" y="-238.8" font-family="Times New Roman,serif" font-size="14.00" fill="#000000">portable</text>
</g>
<!-- N2_2&#45;&gt;Note2 -->
<g id="edge7" class="edge"><title>N2_2&#45;&gt;Note2</title>
<path fill="none" stroke="black" d="M407.085,-212.828C407.085,-218.806 407.085,-224.784 407.085,-230.762"/>
</g>
<!-- N4 -->
<g id="node12" class="node"><title>N4</title>
<ellipse fill="white" stroke="black" cx="524.832" cy="-230" rx="0.5" ry="0.5"/>
</g>
<!-- XML&#45;&gt;N4 -->
<g id="edge11" class="edge"><title>XML&#45;&gt;N4</title>
<path fill="none" stroke="black" d="M524.832,-221.45C524.832,-224.104 524.832,-226.758 524.832,-229.413"/>
<polygon fill="black" stroke="black" points="528.332,-221.211 524.832,-211.211 521.332,-221.211 528.332,-221.211"/>
</g>
<!-- Simplified\nMarkdown -->
<g id="node14" class="node"><title>Simplified\nMarkdown</title>
<ellipse fill="white" stroke="black" cx="658.026" cy="-193" rx="54.3945" ry="26.7407"/>
<text text-anchor="middle" x="658.026" y="-196.8" font-family="Times New Roman,serif" font-size="14.00" fill="#000000">Simplified</text>
<text text-anchor="middle" x="658.026" y="-181.8" font-family="Times New Roman,serif" font-size="14.00" fill="#000000">Markdown</text>
</g>
<!-- XML&#45;&gt;Simplified\nMarkdown -->
<g id="edge25" class="edge"><title>XML&#45;&gt;Simplified\nMarkdown</title>
<path fill="none" stroke="black" d="M555.602,-193C566.868,-193 580.167,-193 593.362,-193"/>
<polygon fill="black" stroke="black" points="593.397,-196.5 603.397,-193 593.397,-189.5 593.397,-196.5"/>
</g>
<!-- Smart\nContract -->
<g id="node10" class="node"><title>Smart\nContract</title>
<polygon fill="white" stroke="black" points="557.332,-137 492.332,-137 492.332,-35 557.332,-35 557.332,-137"/>
<text text-anchor="middle" x="524.832" y="-89.8" font-family="Times New Roman,serif" font-size="14.00" fill="#000000">Smart</text>
<text text-anchor="middle" x="524.832" y="-74.8" font-family="Times New Roman,serif" font-size="14.00" fill="#000000">Contract</text>
</g>
<!-- N3 -->
<g id="node11" class="node"><title>N3</title>
<ellipse fill="white" stroke="black" cx="524.832" cy="-156" rx="0.5" ry="0.5"/>
</g>
<!-- Smart\nContract&#45;&gt;N3 -->
<g id="edge9" class="edge"><title>Smart\nContract&#45;&gt;N3</title>
<path fill="none" stroke="black" d="M524.832,-147.414C524.832,-150.079 524.832,-152.745 524.832,-155.41"/>
<polygon fill="black" stroke="black" points="528.332,-147.133 524.832,-137.133 521.332,-147.133 528.332,-147.133"/>
</g>
<!-- N3&#45;&gt;XML -->
<g id="edge10" class="edge"><title>N3&#45;&gt;XML</title>
<path fill="none" stroke="black" d="M524.832,-156.578C524.832,-159.234 524.832,-161.89 524.832,-164.545"/>
<polygon fill="black" stroke="black" points="521.332,-164.789 524.832,-174.789 528.332,-164.789 521.332,-164.789"/>
</g>
<!-- XMPP -->
<g id="node13" class="node"><title>XMPP</title>
<ellipse fill="white" stroke="black" cx="524.832" cy="-267" rx="35.9954" ry="18"/>
<text text-anchor="middle" x="524.832" y="-263.3" font-family="Times New Roman,serif" font-size="14.00" fill="#000000">XMPP</text>
</g>
<!-- N4&#45;&gt;XMPP -->
<g id="edge12" class="edge"><title>N4&#45;&gt;XMPP</title>
<path fill="none" stroke="black" d="M524.832,-230.578C524.832,-233.234 524.832,-235.89 524.832,-238.545"/>
<polygon fill="black" stroke="black" points="521.332,-238.789 524.832,-248.789 528.332,-238.789 521.332,-238.789"/>
</g>
<!-- HTML -->
<g id="node15" class="node"><title>HTML</title>
<ellipse fill="white" stroke="black" cx="795.919" cy="-34" rx="36.2938" ry="18"/>
<text text-anchor="middle" x="795.919" y="-30.3" font-family="Times New Roman,serif" font-size="14.00" fill="#000000">HTML</text>
</g>
<!-- Simplified\nMarkdown&#45;&gt;HTML -->
<g id="edge13" class="edge"><title>Simplified\nMarkdown&#45;&gt;HTML</title>
<path fill="none" stroke="black" d="M672.101,-166.894C687.409,-138.27 714.98,-92.2594 748.473,-61 752.036,-57.6749 756.079,-54.5824 760.259,-51.766"/>
<polygon fill="black" stroke="black" points="762.27,-54.6368 768.917,-46.3868 758.576,-48.6908 762.27,-54.6368"/>
</g>
<!-- Plain Text -->
<g id="node16" class="node"><title>Plain Text</title>
<ellipse fill="white" stroke="black" cx="795.919" cy="-88" rx="47.3916" ry="18"/>
<text text-anchor="middle" x="795.919" y="-84.3" font-family="Times New Roman,serif" font-size="14.00" fill="#000000">Plain Text</text>
</g>
<!-- Simplified\nMarkdown&#45;&gt;Plain Text -->
<g id="edge14" class="edge"><title>Simplified\nMarkdown&#45;&gt;Plain Text</title>
<path fill="none" stroke="black" d="M683.789,-169.119C701.176,-152.936 725.363,-131.564 748.473,-115 751.885,-112.555 755.532,-110.135 759.227,-107.807"/>
<polygon fill="black" stroke="black" points="761.114,-110.756 767.845,-102.574 757.481,-104.773 761.114,-110.756"/>
</g>
<!-- XAML\nWPF -->
<g id="node17" class="node"><title>XAML\nWPF</title>
<ellipse fill="white" stroke="black" cx="795.919" cy="-151" rx="39.6962" ry="26.7407"/>
<text text-anchor="middle" x="795.919" y="-154.8" font-family="Times New Roman,serif" font-size="14.00" fill="#000000">XAML</text>
<text text-anchor="middle" x="795.919" y="-139.8" font-family="Times New Roman,serif" font-size="14.00" fill="#000000">WPF</text>
</g>
<!-- Simplified\nMarkdown&#45;&gt;XAML\nWPF -->
<g id="edge15" class="edge"><title>Simplified\nMarkdown&#45;&gt;XAML\nWPF</title>
<path fill="none" stroke="black" d="M704.655,-178.898C719.189,-174.406 735.256,-169.44 749.758,-164.958"/>
<polygon fill="black" stroke="black" points="750.988,-168.241 759.509,-161.944 748.921,-161.553 750.988,-168.241"/>
</g>
<!-- XAML\nXamarin -->
<g id="node18" class="node"><title>XAML\nXamarin</title>
<ellipse fill="white" stroke="black" cx="795.919" cy="-223" rx="44.5955" ry="26.7407"/>
<text text-anchor="middle" x="795.919" y="-226.8" font-family="Times New Roman,serif" font-size="14.00" fill="#000000">XAML</text>
<text text-anchor="middle" x="795.919" y="-211.8" font-family="Times New Roman,serif" font-size="14.00" fill="#000000">Xamarin</text>
</g>
<!-- Simplified\nMarkdown&#45;&gt;XAML\nXamarin -->
<g id="edge16" class="edge"><title>Simplified\nMarkdown&#45;&gt;XAML\nXamarin</title>
<path fill="none" stroke="black" d="M708.087,-203.831C719.612,-206.375 731.924,-209.093 743.547,-211.659"/>
<polygon fill="black" stroke="black" points="743.028,-215.129 753.547,-213.867 744.537,-208.293 743.028,-215.129"/>
</g>
<!-- XAML\nMaui -->
<g id="node19" class="node"><title>XAML\nMaui</title>
<ellipse fill="white" stroke="black" cx="795.919" cy="-295" rx="39.6962" ry="26.7407"/>
<text text-anchor="middle" x="795.919" y="-298.8" font-family="Times New Roman,serif" font-size="14.00" fill="#000000">XAML</text>
<text text-anchor="middle" x="795.919" y="-283.8" font-family="Times New Roman,serif" font-size="14.00" fill="#000000">Maui</text>
</g>
<!-- Simplified\nMarkdown&#45;&gt;XAML\nMaui -->
<g id="edge17" class="edge"><title>Simplified\nMarkdown&#45;&gt;XAML\nMaui</title>
<path fill="none" stroke="black" d="M688.849,-215.384C709.909,-231.192 738.195,-252.424 760.261,-268.986"/>
<polygon fill="black" stroke="black" points="758.286,-271.88 768.385,-275.084 762.488,-266.281 758.286,-271.88"/>
</g>
<!-- LaTeX -->
<g id="node20" class="node"><title>LaTeX</title>
<ellipse fill="white" stroke="black" cx="795.919" cy="-358" rx="36.2938" ry="18"/>
<text text-anchor="middle" x="795.919" y="-354.3" font-family="Times New Roman,serif" font-size="14.00" fill="#000000">LaTeX</text>
</g>
<!-- Simplified\nMarkdown&#45;&gt;LaTeX -->
<g id="edge18" class="edge"><title>Simplified\nMarkdown&#45;&gt;LaTeX</title>
<path fill="none" stroke="black" d="M671.29,-219.248C686.24,-249.115 713.847,-298.014 748.473,-331 752.002,-334.361 756.025,-337.475 760.194,-340.303"/>
<polygon fill="black" stroke="black" points="758.505,-343.375 768.843,-345.692 762.207,-337.433 758.505,-343.375"/>
</g>
<!-- Web -->
<g id="node21" class="node"><title>Web</title>
<ellipse fill="white" stroke="black" cx="952.904" cy="-34" rx="28.6953" ry="18"/>
<text text-anchor="middle" x="952.904" y="-30.3" font-family="Times New Roman,serif" font-size="14.00" fill="#000000">Web</text>
</g>
<!-- HTML&#45;&gt;Web -->
<g id="edge19" class="edge"><title>HTML&#45;&gt;Web</title>
<path fill="none" stroke="black" d="M832.476,-34C856.874,-34 889.208,-34 914.078,-34"/>
<polygon fill="black" stroke="black" points="914.235,-37.5001 924.235,-34 914.235,-30.5001 914.235,-37.5001"/>
</g>
<!-- Logs -->
<g id="node26" class="node"><title>Logs</title>
<ellipse fill="white" stroke="black" cx="952.904" cy="-88" rx="29.4969" ry="18"/>
<text text-anchor="middle" x="952.904" y="-84.3" font-family="Times New Roman,serif" font-size="14.00" fill="#000000">Logs</text>
</g>
<!-- Plain Text&#45;&gt;Logs -->
<g id="edge24" class="edge"><title>Plain Text&#45;&gt;Logs</title>
<path fill="none" stroke="black" d="M843.42,-88C865.693,-88 892.055,-88 913.215,-88"/>
<polygon fill="black" stroke="black" points="913.449,-91.5001 923.449,-88 913.449,-84.5001 913.449,-91.5001"/>
</g>
<!-- Windows\n(ex. LegalLab) -->
<g id="node22" class="node"><title>Windows\n(ex. LegalLab)</title>
<ellipse fill="white" stroke="black" cx="952.904" cy="-151" rx="69.0935" ry="26.7407"/>
<text text-anchor="middle" x="952.904" y="-154.8" font-family="Times New Roman,serif" font-size="14.00" fill="#000000">Windows</text>
<text text-anchor="middle" x="952.904" y="-139.8" font-family="Times New Roman,serif" font-size="14.00" fill="#000000">(ex. LegalLab)</text>
</g>
<!-- XAML\nWPF&#45;&gt;Windows\n(ex. LegalLab) -->
<g id="edge20" class="edge"><title>XAML\nWPF&#45;&gt;Windows\n(ex. LegalLab)</title>
<path fill="none" stroke="black" d="M835.629,-151C847.203,-151 860.333,-151 873.498,-151"/>
<polygon fill="black" stroke="black" points="873.547,-154.5 883.547,-151 873.547,-147.5 873.547,-154.5"/>
</g>
<!-- Mobile App\n(ex. TAG ID) -->
<g id="node23" class="node"><title>Mobile App\n(ex. TAG ID)</title>
<ellipse fill="white" stroke="black" cx="952.904" cy="-223" rx="65.5227" ry="26.7407"/>
<text text-anchor="middle" x="952.904" y="-226.8" font-family="Times New Roman,serif" font-size="14.00" fill="#000000">Mobile App</text>
<text text-anchor="middle" x="952.904" y="-211.8" font-family="Times New Roman,serif" font-size="14.00" fill="#000000">(ex. TAG ID)</text>
</g>
<!-- XAML\nXamarin&#45;&gt;Mobile App\n(ex. TAG ID) -->
<g id="edge21" class="edge"><title>XAML\nXamarin&#45;&gt;Mobile App\n(ex. TAG ID)</title>
<path fill="none" stroke="black" d="M840.504,-223C851.765,-223 864.217,-223 876.594,-223"/>
<polygon fill="black" stroke="black" points="876.946,-226.5 886.946,-223 876.946,-219.5 876.946,-226.5"/>
</g>
<!-- Mobile App\n(ex. TAG ID 2) -->
<g id="node24" class="node"><title>Mobile App\n(ex. TAG ID 2)</title>
<ellipse fill="white" stroke="black" cx="952.904" cy="-295" rx="73.5782" ry="26.7407"/>
<text text-anchor="middle" x="952.904" y="-298.8" font-family="Times New Roman,serif" font-size="14.00" fill="#000000">Mobile App</text>
<text text-anchor="middle" x="952.904" y="-283.8" font-family="Times New Roman,serif" font-size="14.00" fill="#000000">(ex. TAG ID 2)</text>
</g>
<!-- XAML\nMaui&#45;&gt;Mobile App\n(ex. TAG ID 2) -->
<g id="edge22" class="edge"><title>XAML\nMaui&#45;&gt;Mobile App\n(ex. TAG ID 2)</title>
<path fill="none" stroke="black" d="M835.629,-295C845.892,-295 857.378,-295 869.027,-295"/>
<polygon fill="black" stroke="black" points="869.279,-298.5 879.279,-295 869.279,-291.5 869.279,-298.5"/>
</g>
<!-- PDF -->
<g id="node25" class="node"><title>PDF</title>
<ellipse fill="white" stroke="black" cx="952.904" cy="-358" rx="27.8951" ry="18"/>
<text text-anchor="middle" x="952.904" y="-354.3" font-family="Times New Roman,serif" font-size="14.00" fill="#000000">PDF</text>
</g>
<!-- LaTeX&#45;&gt;PDF -->
<g id="edge23" class="edge"><title>LaTeX&#45;&gt;PDF</title>
<path fill="none" stroke="black" d="M832.476,-358C857.03,-358 889.622,-358 914.555,-358"/>
<polygon fill="black" stroke="black" points="914.726,-361.5 924.726,-358 914.726,-354.5 914.726,-361.5"/>
</g>
</g>
</svg>
